<mxfile host="app.diagrams.net" modified="2023-11-14T07:42:25.594Z" agent="Mozilla/5.0 (Windows NT 10.0; Win64; x64) AppleWebKit/537.36 (KHTML, like Gecko) Chrome/118.0.0.0 Safari/537.36 OPR/104.0.0.0" etag="togdWwSO4vxHu6eQx8cJ" version="22.1.0" type="device">
  <diagram name="Sayfa -1" id="g2A2KwyX2S-lIr5bwAmA">
    <mxGraphModel dx="949" dy="591" grid="1" gridSize="10" guides="1" tooltips="1" connect="1" arrows="1" fold="1" page="1" pageScale="1" pageWidth="827" pageHeight="1169" math="0" shadow="0">
      <root>
        <mxCell id="0" />
        <mxCell id="1" parent="0" />
        <mxCell id="_W60J0qDHAOSwUFbIHcF-27" value="Student" style="swimlane;fontStyle=0;childLayout=stackLayout;horizontal=1;startSize=26;horizontalStack=0;resizeParent=1;resizeParentMax=0;resizeLast=0;collapsible=1;marginBottom=0;align=center;fontSize=14;" vertex="1" parent="1">
          <mxGeometry x="330" y="270" width="160" height="56" as="geometry" />
        </mxCell>
        <mxCell id="_W60J0qDHAOSwUFbIHcF-28" value="studentID" style="text;strokeColor=none;fillColor=none;spacingLeft=4;spacingRight=4;overflow=hidden;rotatable=0;points=[[0,0.5],[1,0.5]];portConstraint=eastwest;fontSize=12;whiteSpace=wrap;html=1;" vertex="1" parent="_W60J0qDHAOSwUFbIHcF-27">
          <mxGeometry y="26" width="160" height="30" as="geometry" />
        </mxCell>
        <mxCell id="_W60J0qDHAOSwUFbIHcF-35" value="Advisor" style="swimlane;fontStyle=0;childLayout=stackLayout;horizontal=1;startSize=26;horizontalStack=0;resizeParent=1;resizeParentMax=0;resizeLast=0;collapsible=1;marginBottom=0;align=center;fontSize=14;" vertex="1" parent="1">
          <mxGeometry x="601" y="230" width="160" height="56" as="geometry" />
        </mxCell>
        <mxCell id="_W60J0qDHAOSwUFbIHcF-36" value="advisorID" style="text;strokeColor=none;fillColor=none;spacingLeft=4;spacingRight=4;overflow=hidden;rotatable=0;points=[[0,0.5],[1,0.5]];portConstraint=eastwest;fontSize=12;whiteSpace=wrap;html=1;" vertex="1" parent="_W60J0qDHAOSwUFbIHcF-35">
          <mxGeometry y="26" width="160" height="30" as="geometry" />
        </mxCell>
        <mxCell id="_W60J0qDHAOSwUFbIHcF-63" style="edgeStyle=orthogonalEdgeStyle;rounded=0;orthogonalLoop=1;jettySize=auto;html=1;exitX=1;exitY=0.25;exitDx=0;exitDy=0;entryX=1;entryY=0.25;entryDx=0;entryDy=0;endArrow=none;endFill=0;" edge="1" parent="1" source="_W60J0qDHAOSwUFbIHcF-37" target="_W60J0qDHAOSwUFbIHcF-59">
          <mxGeometry relative="1" as="geometry">
            <Array as="points">
              <mxPoint x="781" y="324" />
              <mxPoint x="781" y="160" />
              <mxPoint x="760" y="160" />
            </Array>
          </mxGeometry>
        </mxCell>
        <mxCell id="_W60J0qDHAOSwUFbIHcF-65" value="Has" style="edgeLabel;html=1;align=center;verticalAlign=middle;resizable=0;points=[];" vertex="1" connectable="0" parent="_W60J0qDHAOSwUFbIHcF-63">
          <mxGeometry x="0.0028" relative="1" as="geometry">
            <mxPoint as="offset" />
          </mxGeometry>
        </mxCell>
        <mxCell id="_W60J0qDHAOSwUFbIHcF-37" value="Lecturer" style="swimlane;fontStyle=0;childLayout=stackLayout;horizontal=1;startSize=26;horizontalStack=0;resizeParent=1;resizeParentMax=0;resizeLast=0;collapsible=1;marginBottom=0;align=center;fontSize=14;" vertex="1" parent="1">
          <mxGeometry x="601" y="310" width="160" height="56" as="geometry" />
        </mxCell>
        <mxCell id="_W60J0qDHAOSwUFbIHcF-38" value="lecturerID" style="text;strokeColor=none;fillColor=none;spacingLeft=4;spacingRight=4;overflow=hidden;rotatable=0;points=[[0,0.5],[1,0.5]];portConstraint=eastwest;fontSize=12;whiteSpace=wrap;html=1;" vertex="1" parent="_W60J0qDHAOSwUFbIHcF-37">
          <mxGeometry y="26" width="160" height="30" as="geometry" />
        </mxCell>
        <mxCell id="_W60J0qDHAOSwUFbIHcF-44" value="Course" style="swimlane;fontStyle=0;childLayout=stackLayout;horizontal=1;startSize=26;horizontalStack=0;resizeParent=1;resizeParentMax=0;resizeLast=0;collapsible=1;marginBottom=0;align=center;fontSize=14;" vertex="1" parent="1">
          <mxGeometry x="10" y="60" width="160" height="56" as="geometry" />
        </mxCell>
        <mxCell id="_W60J0qDHAOSwUFbIHcF-45" value="advisorID" style="text;strokeColor=none;fillColor=none;spacingLeft=4;spacingRight=4;overflow=hidden;rotatable=0;points=[[0,0.5],[1,0.5]];portConstraint=eastwest;fontSize=12;whiteSpace=wrap;html=1;" vertex="1" parent="_W60J0qDHAOSwUFbIHcF-44">
          <mxGeometry y="26" width="160" height="30" as="geometry" />
        </mxCell>
        <mxCell id="_W60J0qDHAOSwUFbIHcF-46" value="CourseSection" style="swimlane;fontStyle=0;childLayout=stackLayout;horizontal=1;startSize=26;horizontalStack=0;resizeParent=1;resizeParentMax=0;resizeLast=0;collapsible=1;marginBottom=0;align=center;fontSize=14;" vertex="1" parent="1">
          <mxGeometry x="200" y="60" width="160" height="56" as="geometry" />
        </mxCell>
        <mxCell id="_W60J0qDHAOSwUFbIHcF-47" value="advisorID" style="text;strokeColor=none;fillColor=none;spacingLeft=4;spacingRight=4;overflow=hidden;rotatable=0;points=[[0,0.5],[1,0.5]];portConstraint=eastwest;fontSize=12;whiteSpace=wrap;html=1;" vertex="1" parent="_W60J0qDHAOSwUFbIHcF-46">
          <mxGeometry y="26" width="160" height="30" as="geometry" />
        </mxCell>
        <mxCell id="_W60J0qDHAOSwUFbIHcF-48" value="Transcript" style="swimlane;fontStyle=0;childLayout=stackLayout;horizontal=1;startSize=26;horizontalStack=0;resizeParent=1;resizeParentMax=0;resizeLast=0;collapsible=1;marginBottom=0;align=center;fontSize=14;" vertex="1" parent="1">
          <mxGeometry x="400" y="60" width="160" height="56" as="geometry" />
        </mxCell>
        <mxCell id="_W60J0qDHAOSwUFbIHcF-49" value="advisorID" style="text;strokeColor=none;fillColor=none;spacingLeft=4;spacingRight=4;overflow=hidden;rotatable=0;points=[[0,0.5],[1,0.5]];portConstraint=eastwest;fontSize=12;whiteSpace=wrap;html=1;" vertex="1" parent="_W60J0qDHAOSwUFbIHcF-48">
          <mxGeometry y="26" width="160" height="30" as="geometry" />
        </mxCell>
        <mxCell id="_W60J0qDHAOSwUFbIHcF-50" value="Grade" style="swimlane;fontStyle=0;childLayout=stackLayout;horizontal=1;startSize=26;horizontalStack=0;resizeParent=1;resizeParentMax=0;resizeLast=0;collapsible=1;marginBottom=0;align=center;fontSize=14;" vertex="1" parent="1">
          <mxGeometry x="600" y="60" width="160" height="56" as="geometry" />
        </mxCell>
        <mxCell id="_W60J0qDHAOSwUFbIHcF-51" value="advisorID" style="text;strokeColor=none;fillColor=none;spacingLeft=4;spacingRight=4;overflow=hidden;rotatable=0;points=[[0,0.5],[1,0.5]];portConstraint=eastwest;fontSize=12;whiteSpace=wrap;html=1;" vertex="1" parent="_W60J0qDHAOSwUFbIHcF-50">
          <mxGeometry y="26" width="160" height="30" as="geometry" />
        </mxCell>
        <mxCell id="_W60J0qDHAOSwUFbIHcF-59" value="TimeInterval" style="swimlane;fontStyle=0;childLayout=stackLayout;horizontal=1;startSize=26;horizontalStack=0;resizeParent=1;resizeParentMax=0;resizeLast=0;collapsible=1;marginBottom=0;align=center;fontSize=14;" vertex="1" parent="1">
          <mxGeometry x="600" y="140" width="160" height="56" as="geometry" />
        </mxCell>
        <mxCell id="_W60J0qDHAOSwUFbIHcF-60" value="advisorID" style="text;strokeColor=none;fillColor=none;spacingLeft=4;spacingRight=4;overflow=hidden;rotatable=0;points=[[0,0.5],[1,0.5]];portConstraint=eastwest;fontSize=12;whiteSpace=wrap;html=1;" vertex="1" parent="_W60J0qDHAOSwUFbIHcF-59">
          <mxGeometry y="26" width="160" height="30" as="geometry" />
        </mxCell>
        <mxCell id="_W60J0qDHAOSwUFbIHcF-61" style="edgeStyle=orthogonalEdgeStyle;rounded=0;orthogonalLoop=1;jettySize=auto;html=1;exitX=0.5;exitY=0;exitDx=0;exitDy=0;entryX=0.514;entryY=1.047;entryDx=0;entryDy=0;entryPerimeter=0;endArrow=none;endFill=0;" edge="1" parent="1">
          <mxGeometry relative="1" as="geometry">
            <mxPoint x="680" y="230" as="sourcePoint" />
            <mxPoint x="681.24" y="197.40999999999997" as="targetPoint" />
          </mxGeometry>
        </mxCell>
        <mxCell id="_W60J0qDHAOSwUFbIHcF-62" value="Has" style="edgeLabel;html=1;align=center;verticalAlign=middle;resizable=0;points=[];" vertex="1" connectable="0" parent="_W60J0qDHAOSwUFbIHcF-61">
          <mxGeometry x="0.1244" y="3" relative="1" as="geometry">
            <mxPoint x="2" as="offset" />
          </mxGeometry>
        </mxCell>
        <mxCell id="_W60J0qDHAOSwUFbIHcF-71" value="Relation" style="endArrow=none;html=1;endSize=12;startArrow=none;startSize=14;startFill=0;edgeStyle=orthogonalEdgeStyle;rounded=0;endFill=0;" edge="1" parent="1">
          <mxGeometry relative="1" as="geometry">
            <mxPoint x="330" y="540" as="sourcePoint" />
            <mxPoint x="490" y="540" as="targetPoint" />
          </mxGeometry>
        </mxCell>
        <mxCell id="_W60J0qDHAOSwUFbIHcF-72" value="0..n" style="edgeLabel;resizable=0;html=1;align=left;verticalAlign=top;" connectable="0" vertex="1" parent="_W60J0qDHAOSwUFbIHcF-71">
          <mxGeometry x="-1" relative="1" as="geometry" />
        </mxCell>
        <mxCell id="_W60J0qDHAOSwUFbIHcF-73" value="1" style="edgeLabel;resizable=0;html=1;align=right;verticalAlign=top;" connectable="0" vertex="1" parent="_W60J0qDHAOSwUFbIHcF-71">
          <mxGeometry x="1" relative="1" as="geometry" />
        </mxCell>
        <mxCell id="_W60J0qDHAOSwUFbIHcF-77" value="Has" style="endArrow=none;html=1;endSize=12;startArrow=none;startSize=14;startFill=0;edgeStyle=orthogonalEdgeStyle;rounded=0;endFill=0;exitX=1;exitY=0.25;exitDx=0;exitDy=0;entryX=0;entryY=0.25;entryDx=0;entryDy=0;" edge="1" parent="1" source="_W60J0qDHAOSwUFbIHcF-27" target="_W60J0qDHAOSwUFbIHcF-35">
          <mxGeometry relative="1" as="geometry">
            <mxPoint x="520" y="480" as="sourcePoint" />
            <mxPoint x="680" y="480" as="targetPoint" />
          </mxGeometry>
        </mxCell>
        <mxCell id="_W60J0qDHAOSwUFbIHcF-78" value="0..n" style="edgeLabel;resizable=0;html=1;align=left;verticalAlign=top;" connectable="0" vertex="1" parent="_W60J0qDHAOSwUFbIHcF-77">
          <mxGeometry x="-1" relative="1" as="geometry">
            <mxPoint x="4" y="-1" as="offset" />
          </mxGeometry>
        </mxCell>
        <mxCell id="_W60J0qDHAOSwUFbIHcF-79" value="1" style="edgeLabel;resizable=0;html=1;align=right;verticalAlign=top;" connectable="0" vertex="1" parent="_W60J0qDHAOSwUFbIHcF-77">
          <mxGeometry x="1" relative="1" as="geometry">
            <mxPoint x="-5" y="-1" as="offset" />
          </mxGeometry>
        </mxCell>
        <mxCell id="_W60J0qDHAOSwUFbIHcF-80" value="Has" style="endArrow=none;html=1;endSize=12;startArrow=none;startSize=14;startFill=0;edgeStyle=orthogonalEdgeStyle;rounded=0;endFill=0;exitX=0.75;exitY=0;exitDx=0;exitDy=0;" edge="1" parent="1" source="_W60J0qDHAOSwUFbIHcF-27" target="_W60J0qDHAOSwUFbIHcF-48">
          <mxGeometry relative="1" as="geometry">
            <mxPoint x="540" y="480" as="sourcePoint" />
            <mxPoint x="700" y="480" as="targetPoint" />
          </mxGeometry>
        </mxCell>
        <mxCell id="_W60J0qDHAOSwUFbIHcF-81" value="1" style="edgeLabel;resizable=0;html=1;align=left;verticalAlign=top;" connectable="0" vertex="1" parent="_W60J0qDHAOSwUFbIHcF-80">
          <mxGeometry x="-1" relative="1" as="geometry">
            <mxPoint y="-21" as="offset" />
          </mxGeometry>
        </mxCell>
        <mxCell id="_W60J0qDHAOSwUFbIHcF-82" value="1" style="edgeLabel;resizable=0;html=1;align=right;verticalAlign=top;" connectable="0" vertex="1" parent="_W60J0qDHAOSwUFbIHcF-80">
          <mxGeometry x="1" relative="1" as="geometry">
            <mxPoint x="-3" y="-1" as="offset" />
          </mxGeometry>
        </mxCell>
        <mxCell id="_W60J0qDHAOSwUFbIHcF-83" value="0..n" style="edgeLabel;resizable=0;html=1;align=left;verticalAlign=top;" connectable="0" vertex="1" parent="1">
          <mxGeometry x="684" y="657" as="geometry" />
        </mxCell>
        <mxCell id="_W60J0qDHAOSwUFbIHcF-84" value="Has" style="endArrow=none;html=1;endSize=12;startArrow=none;startSize=14;startFill=0;edgeStyle=orthogonalEdgeStyle;rounded=0;endFill=0;exitX=0.744;exitY=1.153;exitDx=0;exitDy=0;exitPerimeter=0;entryX=0;entryY=0.25;entryDx=0;entryDy=0;" edge="1" parent="1" source="_W60J0qDHAOSwUFbIHcF-47" target="_W60J0qDHAOSwUFbIHcF-59">
          <mxGeometry relative="1" as="geometry">
            <mxPoint x="520" y="504" as="sourcePoint" />
            <mxPoint x="670" y="490" as="targetPoint" />
            <Array as="points">
              <mxPoint x="319" y="160" />
              <mxPoint x="600" y="160" />
            </Array>
          </mxGeometry>
        </mxCell>
        <mxCell id="_W60J0qDHAOSwUFbIHcF-85" value="1" style="edgeLabel;resizable=0;html=1;align=left;verticalAlign=top;" connectable="0" vertex="1" parent="_W60J0qDHAOSwUFbIHcF-84">
          <mxGeometry x="-1" relative="1" as="geometry">
            <mxPoint x="3" y="-5" as="offset" />
          </mxGeometry>
        </mxCell>
        <mxCell id="_W60J0qDHAOSwUFbIHcF-86" value="1" style="edgeLabel;resizable=0;html=1;align=right;verticalAlign=top;" connectable="0" vertex="1" parent="_W60J0qDHAOSwUFbIHcF-84">
          <mxGeometry x="1" relative="1" as="geometry">
            <mxPoint x="-3" y="1" as="offset" />
          </mxGeometry>
        </mxCell>
        <mxCell id="_W60J0qDHAOSwUFbIHcF-87" value="Has" style="endArrow=none;html=1;endSize=12;startArrow=none;startSize=14;startFill=0;edgeStyle=orthogonalEdgeStyle;rounded=0;endFill=0;entryX=0.5;entryY=0;entryDx=0;entryDy=0;exitX=0.5;exitY=0;exitDx=0;exitDy=0;" edge="1" parent="1" source="_W60J0qDHAOSwUFbIHcF-48" target="_W60J0qDHAOSwUFbIHcF-50">
          <mxGeometry relative="1" as="geometry">
            <mxPoint x="520" y="40" as="sourcePoint" />
            <mxPoint x="680" y="40" as="targetPoint" />
            <Array as="points">
              <mxPoint x="480" y="30" />
              <mxPoint x="680" y="30" />
            </Array>
          </mxGeometry>
        </mxCell>
        <mxCell id="_W60J0qDHAOSwUFbIHcF-88" value="1" style="edgeLabel;resizable=0;html=1;align=left;verticalAlign=top;" connectable="0" vertex="1" parent="_W60J0qDHAOSwUFbIHcF-87">
          <mxGeometry x="-1" relative="1" as="geometry">
            <mxPoint x="3" y="-24" as="offset" />
          </mxGeometry>
        </mxCell>
        <mxCell id="_W60J0qDHAOSwUFbIHcF-89" value="1..n" style="edgeLabel;resizable=0;html=1;align=right;verticalAlign=top;" connectable="0" vertex="1" parent="_W60J0qDHAOSwUFbIHcF-87">
          <mxGeometry x="1" relative="1" as="geometry">
            <mxPoint x="-7" y="-24" as="offset" />
          </mxGeometry>
        </mxCell>
        <mxCell id="_W60J0qDHAOSwUFbIHcF-90" value="Has" style="endArrow=none;html=1;endSize=12;startArrow=none;startSize=14;startFill=0;edgeStyle=orthogonalEdgeStyle;rounded=0;endFill=0;exitX=0.224;exitY=1.02;exitDx=0;exitDy=0;exitPerimeter=0;entryX=0;entryY=0.5;entryDx=0;entryDy=0;" edge="1" parent="1" source="_W60J0qDHAOSwUFbIHcF-47" target="_W60J0qDHAOSwUFbIHcF-38">
          <mxGeometry x="-0.2041" y="1" relative="1" as="geometry">
            <mxPoint x="310" y="390" as="sourcePoint" />
            <mxPoint x="470" y="390" as="targetPoint" />
            <mxPoint as="offset" />
          </mxGeometry>
        </mxCell>
        <mxCell id="_W60J0qDHAOSwUFbIHcF-91" value="1" style="edgeLabel;resizable=0;html=1;align=left;verticalAlign=top;" connectable="0" vertex="1" parent="_W60J0qDHAOSwUFbIHcF-90">
          <mxGeometry x="-1" relative="1" as="geometry">
            <mxPoint x="3" y="-2" as="offset" />
          </mxGeometry>
        </mxCell>
        <mxCell id="_W60J0qDHAOSwUFbIHcF-92" value="1" style="edgeLabel;resizable=0;html=1;align=right;verticalAlign=top;" connectable="0" vertex="1" parent="_W60J0qDHAOSwUFbIHcF-90">
          <mxGeometry x="1" relative="1" as="geometry">
            <mxPoint x="-3" y="-3" as="offset" />
          </mxGeometry>
        </mxCell>
        <mxCell id="_W60J0qDHAOSwUFbIHcF-93" value="Has" style="endArrow=none;html=1;endSize=12;startArrow=none;startSize=14;startFill=0;edgeStyle=orthogonalEdgeStyle;rounded=0;endFill=0;exitX=0.499;exitY=0.993;exitDx=0;exitDy=0;exitPerimeter=0;entryX=0.25;entryY=0;entryDx=0;entryDy=0;" edge="1" parent="1" source="_W60J0qDHAOSwUFbIHcF-47" target="_W60J0qDHAOSwUFbIHcF-27">
          <mxGeometry relative="1" as="geometry">
            <mxPoint x="310" y="390" as="sourcePoint" />
            <mxPoint x="470" y="390" as="targetPoint" />
          </mxGeometry>
        </mxCell>
        <mxCell id="_W60J0qDHAOSwUFbIHcF-94" value="0..n" style="edgeLabel;resizable=0;html=1;align=left;verticalAlign=top;" connectable="0" vertex="1" parent="_W60J0qDHAOSwUFbIHcF-93">
          <mxGeometry x="-1" relative="1" as="geometry" />
        </mxCell>
        <mxCell id="_W60J0qDHAOSwUFbIHcF-95" value="1..n" style="edgeLabel;resizable=0;html=1;align=right;verticalAlign=top;" connectable="0" vertex="1" parent="_W60J0qDHAOSwUFbIHcF-93">
          <mxGeometry x="1" relative="1" as="geometry">
            <mxPoint x="-7" y="-22" as="offset" />
          </mxGeometry>
        </mxCell>
        <mxCell id="_W60J0qDHAOSwUFbIHcF-96" value="Has" style="endArrow=none;html=1;endSize=12;startArrow=none;startSize=14;startFill=0;edgeStyle=orthogonalEdgeStyle;rounded=0;endFill=0;exitX=0.5;exitY=0;exitDx=0;exitDy=0;entryX=0.75;entryY=0;entryDx=0;entryDy=0;" edge="1" parent="1" source="_W60J0qDHAOSwUFbIHcF-44" target="_W60J0qDHAOSwUFbIHcF-50">
          <mxGeometry relative="1" as="geometry">
            <mxPoint x="310" y="390" as="sourcePoint" />
            <mxPoint x="470" y="390" as="targetPoint" />
            <Array as="points">
              <mxPoint x="90" y="10" />
              <mxPoint x="720" y="10" />
            </Array>
          </mxGeometry>
        </mxCell>
        <mxCell id="_W60J0qDHAOSwUFbIHcF-97" value="1" style="edgeLabel;resizable=0;html=1;align=left;verticalAlign=top;" connectable="0" vertex="1" parent="_W60J0qDHAOSwUFbIHcF-96">
          <mxGeometry x="-1" relative="1" as="geometry">
            <mxPoint x="4" y="-24" as="offset" />
          </mxGeometry>
        </mxCell>
        <mxCell id="_W60J0qDHAOSwUFbIHcF-98" value="1" style="edgeLabel;resizable=0;html=1;align=right;verticalAlign=top;" connectable="0" vertex="1" parent="_W60J0qDHAOSwUFbIHcF-96">
          <mxGeometry x="1" relative="1" as="geometry">
            <mxPoint x="-3" y="-23" as="offset" />
          </mxGeometry>
        </mxCell>
      </root>
    </mxGraphModel>
  </diagram>
</mxfile>
